<?xml version="1.0" standalone="no"?>
<!DOCTYPE svg PUBLIC "-//W3C//DTD SVG 20010904//EN"
 "http://www.w3.org/TR/2001/REC-SVG-20010904/DTD/svg10.dtd">
<svg version="1.0" xmlns="http://www.w3.org/2000/svg"
 width="700.000000pt" height="700.000000pt" viewBox="0 0 700.000000 700.000000"
 preserveAspectRatio="xMidYMid meet">
<metadata>
Created by potrace 1.11, written by Peter Selinger 2001-2013
</metadata>
<g transform="translate(0.000000,700.000000) scale(0.100000,-0.100000)"
fill="#000000" stroke="none">
<path d="M4077 5236 c-74 -43 -164 -122 -361 -320 l-198 -199 -287 48 c-157
26 -329 54 -381 61 -52 8 -107 17 -122 19 -15 3 -105 16 -200 30 -95 14 -184
28 -198 30 -32 5 -122 16 -240 29 -30 4 -66 9 -80 11 -24 4 -69 9 -170 20 -25
3 -108 8 -186 11 -135 7 -142 6 -163 -15 -11 -11 -21 -24 -21 -28 0 -22 46
-77 97 -118 63 -50 303 -172 453 -230 271 -105 650 -214 995 -285 54 -11 100
-22 102 -24 3 -2 -114 -139 -172 -202 -5 -6 -32 -37 -60 -70 -27 -32 -95 -110
-150 -174 -86 -98 -492 -579 -634 -750 -25 -30 -50 -60 -56 -66 -5 -6 -53 -64
-105 -128 l-95 -118 -45 6 c-25 3 -56 9 -70 12 -46 10 -240 12 -240 3 0 -5 4
-9 10 -9 19 0 138 -121 161 -164 23 -44 23 -45 5 -65 -19 -21 -19 -20 -47 24
-67 105 -192 198 -282 209 -69 8 -144 -28 -184 -89 l-22 -32 116 -199 c64
-110 165 -284 226 -389 60 -104 113 -194 117 -198 9 -10 52 32 85 85 81 124
86 318 13 487 l-19 45 29 28 29 29 188 -46 c103 -25 193 -44 201 -41 7 3 17
21 23 40 21 78 -31 152 -145 206 -34 17 -67 30 -72 30 -28 0 -16 23 45 91 36
41 98 110 137 153 106 119 105 118 326 356 69 74 130 140 135 146 11 12 81 86
333 350 89 94 174 184 188 200 15 16 67 71 117 121 69 72 94 92 111 88 35 -8
138 -24 191 -30 28 -4 57 -8 65 -10 8 -2 71 -11 140 -20 69 -8 141 -18 160
-20 19 -3 60 -7 90 -10 30 -3 71 -7 90 -10 19 -3 58 -7 85 -9 59 -5 181 -16
245 -21 25 -2 90 -6 145 -10 55 -3 143 -8 195 -11 127 -7 624 -7 730 0 197 14
357 38 416 62 79 33 62 62 -59 99 -123 37 -438 111 -727 170 -149 30 -427 86
-455 91 -16 3 -86 16 -155 29 -69 13 -138 27 -155 30 -16 3 -43 7 -60 10 -16
3 -75 14 -130 25 -116 22 -119 23 -285 51 -69 11 -127 22 -129 25 -2 2 18 27
45 56 27 29 67 73 89 97 22 25 47 52 55 60 49 52 174 205 209 255 66 95 52
131 -32 82z"/>
<path d="M3275 3994 c-166 -180 -190 -207 -208 -228 -18 -21 -136 -150 -209
-229 -20 -22 -34 -45 -31 -50 3 -6 2 -7 -4 -4 -13 8 -56 -37 -46 -47 5 -4 1
-6 -7 -4 -15 3 -93 -139 -84 -154 3 -5 1 -8 -4 -8 -5 0 -9 -6 -10 -12 0 -7
-15 -53 -32 -101 -17 -49 -29 -95 -26 -103 3 -9 1 -12 -4 -9 -6 3 -10 3 -11
-2 0 -4 -3 -19 -6 -33 -3 -14 -6 -35 -7 -47 -1 -13 -4 -23 -7 -23 -9 0 -31
-127 -33 -192 -1 -16 -3 -28 -6 -28 -3 0 -6 -61 -6 -135 -1 -77 3 -135 8 -135
5 0 7 -8 5 -17 -3 -10 -2 -38 1 -63 6 -39 10 -45 32 -46 14 0 32 4 40 10 13 8
13 8 2 -4 -7 -8 -22 -15 -33 -15 -10 0 -20 -2 -21 -5 -4 -14 14 -80 22 -80 5
0 6 -7 3 -17 -4 -11 -3 -14 6 -9 8 6 11 2 9 -10 -2 -12 2 -18 10 -16 8 1 11
-2 7 -9 -12 -18 27 -79 50 -79 16 0 17 -2 5 -10 -12 -7 -12 -12 4 -29 11 -12
25 -21 33 -21 8 0 11 -5 7 -12 -5 -8 -2 -9 10 -5 10 4 15 3 11 -4 -12 -18 97
-93 152 -105 99 -21 135 -24 130 -10 -2 6 0 19 4 28 6 10 5 19 -1 23 -5 3 -10
2 -10 -3 0 -5 -8 -18 -18 -30 -17 -20 -20 -20 -35 -4 -11 10 -17 12 -17 4 0
-7 -5 -12 -11 -12 -8 0 -8 5 1 15 11 13 10 15 -6 12 -11 -1 -25 -6 -31 -10 -8
-5 -13 -3 -13 3 0 6 -4 9 -9 5 -5 -3 -15 1 -23 8 -7 8 -19 12 -26 11 -7 -1 -8
0 -2 3 7 3 5 12 -6 24 -9 10 -14 19 -9 19 4 0 18 -12 31 -28 20 -22 32 -27 69
-27 31 0 44 3 41 12 -7 17 18 35 38 27 11 -4 15 -13 11 -28 -5 -18 -3 -17 9 4
13 23 13 26 -7 37 -24 12 -54 2 -64 -23 -3 -8 -9 -14 -14 -14 -4 0 -6 7 -2 15
3 10 1 15 -8 13 -7 -2 -14 6 -16 17 -2 15 -1 16 5 5 4 -8 16 -16 27 -18 16 -2
14 3 -13 28 -18 16 -29 30 -25 30 10 0 -19 20 -30 20 -5 0 -6 -3 -3 -8 2 -4
-2 -15 -9 -26 -14 -18 -35 -14 -35 7 0 8 3 8 9 -2 6 -9 11 -10 15 -2 4 6 4 11
0 11 -3 0 -1 7 6 15 18 22 26 19 68 -24 34 -35 39 -38 57 -25 11 8 25 12 32
10 16 -7 17 6 1 22 -15 15 -29 15 -26 0 4 -17 -25 -21 -46 -5 -17 13 -17 14
-1 30 19 19 35 22 35 6 0 -5 -4 -8 -9 -5 -5 3 -15 -2 -22 -11 -12 -15 -12 -16
4 -10 11 4 16 3 12 -3 -3 -6 1 -10 10 -10 9 0 13 5 10 10 -3 6 0 13 8 16 8 3
17 14 20 25 3 10 11 19 19 19 8 0 9 -3 2 -8 -17 -12 -23 -39 -11 -51 16 -16
31 -13 17 4 -9 11 -8 19 5 37 10 14 15 16 12 6 -3 -9 0 -21 7 -27 10 -8 13 -4
13 19 0 24 -5 30 -22 30 -11 0 -27 6 -34 13 -7 6 -11 8 -10 2 1 -5 -3 -21 -9
-35 -7 -17 -11 -20 -11 -8 -1 9 3 19 9 23 11 7 2 35 -11 35 -4 0 -6 -7 -3 -15
4 -8 1 -15 -6 -15 -6 0 -9 4 -5 9 7 12 -34 51 -52 51 -8 0 -11 4 -8 10 6 10
-9 15 -30 10 -5 -1 -7 2 -3 6 4 4 -6 24 -22 44 -17 21 -30 43 -30 48 0 6 -8
16 -17 21 -10 6 -14 11 -10 11 4 0 2 10 -5 23 -7 12 -12 29 -13 37 0 9 -9 15
-23 14 -12 -1 -20 1 -17 5 4 3 12 6 18 6 11 0 13 15 8 63 0 7 -5 10 -11 7 -5
-3 -10 -1 -10 4 0 6 4 11 8 11 10 0 8 92 -2 108 -3 5 -2 12 1 16 4 4 9 19 11
34 1 15 9 58 17 96 8 38 12 72 10 77 -3 4 -1 9 5 11 6 2 11 18 13 36 1 17 6
32 11 32 4 0 6 11 4 25 -3 13 -2 23 1 20 7 -4 26 38 40 87 8 28 138 272 163
307 10 13 15 28 11 34 -3 5 -2 7 4 4 5 -3 18 8 28 26 59 103 268 365 402 505
49 50 87 92 86 92 -2 0 11 13 29 29 l33 29 -50 7 c-28 4 -61 9 -75 11 -14 2
-48 7 -75 10 l-50 6 -90 -98z m-631 -1152 c3 -5 -1 -9 -9 -9 -8 0 -12 4 -9 9
3 4 7 8 9 8 2 0 6 -4 9 -8z m81 -42 c3 -5 1 -10 -4 -10 -6 0 -11 5 -11 10 0 6
2 10 4 10 3 0 8 -4 11 -10z m19 -138 c3 -5 -1 -9 -9 -9 -8 0 -12 4 -9 9 3 4 7
8 9 8 2 0 6 -4 9 -8z m-74 -22 c0 -5 -2 -10 -4 -10 -3 0 -8 5 -11 10 -3 6 -1
10 4 10 6 0 11 -4 11 -10z m-45 -60 c3 -5 1 -10 -4 -10 -6 0 -11 5 -11 10 0 6
2 10 4 10 3 0 8 -4 11 -10z m45 0 c0 -5 -5 -10 -11 -10 -5 0 -7 5 -4 10 3 6 8
10 11 10 2 0 4 -4 4 -10z m-64 -135 c-1 -8 -5 -17 -8 -21 -5 -4 -4 16 1 34 3
9 9 -1 7 -13z m41 -12 c0 -9 -4 -10 -14 -2 -7 6 -13 12 -13 14 0 1 6 2 13 2 8
0 14 -6 14 -14z m-64 -68 c-3 -9 -8 -14 -10 -11 -3 3 -2 9 2 15 9 16 15 13 8
-4z m42 6 c3 -5 2 -12 -3 -15 -5 -3 -9 1 -9 9 0 17 3 19 12 6z m75 -6 c-7 -9
-15 -13 -18 -10 -3 3 -10 0 -17 -5 -8 -7 -12 -5 -12 4 0 8 8 13 18 11 10 -2
21 0 24 6 4 5 9 9 12 9 3 0 0 -7 -7 -15z m-13 -52 c0 -8 -4 -10 -12 -3 -7 5
-16 6 -20 2 -5 -4 -5 -2 -2 4 9 15 34 13 34 -3z m88 -13 c3 -6 -1 -7 -9 -4
-18 7 -21 14 -7 14 6 0 13 -4 16 -10z m-93 -15 c3 0 9 -3 13 -7 4 -3 0 -5 -9
-4 -9 1 -22 8 -29 16 -10 10 -9 11 3 4 8 -5 18 -9 22 -9z m84 -7 c4 -7 3 -8
-4 -4 -7 4 -12 2 -12 -5 0 -7 -3 -10 -6 -6 -6 5 3 27 11 27 2 0 7 -5 11 -12z
m-164 -15 c-1 -4 7 -17 16 -28 17 -20 17 -20 -4 -2 -11 9 -21 24 -21 32 0 8 2
13 5 11 2 -2 4 -8 4 -13z m54 -5 c3 -4 -1 -5 -10 -4 -8 1 -18 5 -22 8 -3 4 1
5 10 4 8 -1 18 -5 22 -8z m69 -10 c5 4 5 1 1 -6 -6 -10 -11 -10 -22 -1 -8 6
-14 14 -14 16 0 3 6 0 13 -6 8 -6 18 -7 22 -3z m110 -8 c-3 -5 -12 -10 -18
-10 -7 0 -6 4 3 10 19 12 23 12 15 0z m-148 -15 c0 -8 -4 -12 -9 -9 -5 3 -6
10 -3 15 9 13 12 11 12 -6z m120 -11 c-3 -3 -12 -4 -19 -1 -8 3 -5 6 6 6 11 1
17 -2 13 -5z m46 -1 c-7 -2 -19 -2 -25 0 -7 3 -2 5 12 5 14 0 19 -2 13 -5z
m-113 -7 c0 -2 -8 -10 -17 -17 -16 -13 -17 -12 -4 4 13 16 21 21 21 13z m-47
-36 c-6 -21 -25 -28 -20 -7 2 10 16 26 24 27 0 0 -1 -9 -4 -20z m65 -11 c-3
-8 -7 -3 -11 10 -4 17 -3 21 5 13 5 -5 8 -16 6 -23z m68 19 c4 -7 4 -10 0 -6
-10 8 -44 -24 -38 -36 3 -5 0 -6 -7 -2 -8 5 -5 15 11 32 27 28 25 27 34 12z
m40 0 c4 -7 3 -8 -4 -4 -12 7 -16 -5 -13 -31 1 -7 -3 -13 -8 -13 -10 0 -7 32
4 50 8 13 12 13 21 -2z m24 -18 c0 -5 -8 -10 -17 -10 -15 0 -16 2 -3 10 19 12
20 12 20 0z m57 -44 c1 -15 -2 -24 -8 -20 -5 3 -7 13 -4 23 3 12 -1 17 -15 18
-11 1 -18 -2 -15 -8 4 -5 -1 -12 -9 -15 -9 -3 -14 -10 -11 -14 3 -5 1 -12 -5
-15 -6 -4 -10 -3 -9 2 4 21 -2 34 -13 27 -6 -4 -8 -3 -5 4 4 5 16 8 27 5 12
-3 20 -2 19 3 -3 19 2 24 23 20 16 -2 23 -10 25 -30z m-186 9 c5 4 6 -1 2 -10
-5 -13 -7 -14 -14 -3 -5 7 -8 18 -8 23 0 6 3 4 6 -3 2 -6 9 -10 14 -7z m-38
-12 c-3 -7 -6 -13 -8 -13 -2 0 -5 6 -8 13 -3 8 1 14 8 14 7 0 11 -6 8 -14z
m97 9 c0 -5 -7 -9 -15 -9 -8 0 -12 4 -9 9 3 4 9 8 15 8 5 0 9 -4 9 -8z m-35
-33 c-4 -5 -12 -9 -18 -8 -9 0 -8 2 1 6 6 2 9 10 6 15 -4 7 -2 8 5 4 6 -4 9
-12 6 -17z m75 5 c0 -2 -7 -4 -15 -4 -8 0 -15 4 -15 10 0 5 7 7 15 4 8 -4 15
-8 15 -10z m62 -23 c-4 -10 -7 -11 -10 -3 -2 7 -8 9 -14 6 -5 -3 -4 3 3 15 15
22 31 9 21 -18z m-84 1 c15 12 16 11 3 -4 -16 -22 -31 -14 -30 15 2 21 2 21 6
-1 4 -20 7 -21 21 -10z m-121 -9 c-10 -3 -14 -9 -10 -16 4 -7 -1 -6 -10 2 -22
17 -22 16 11 18 15 0 19 -1 9 -4z m67 -22 c0 -15 4 -20 13 -17 8 3 11 1 8 -4
-3 -6 -1 -10 6 -10 7 0 10 -3 7 -6 -4 -3 -15 -1 -26 5 -14 8 -19 17 -15 32 4
13 2 20 -3 16 -6 -3 -16 -1 -24 4 -11 7 -8 8 10 5 18 -2 25 -9 24 -25z m-29
-1 c3 -5 2 -10 -4 -10 -5 0 -13 5 -16 10 -3 6 -2 10 4 10 5 0 13 -4 16 -10z
m135 -31 c0 -5 -8 -9 -17 -8 -11 0 -13 3 -5 6 6 2 9 10 6 15 -4 7 -2 8 4 4 7
-4 12 -11 12 -17z m-105 -17 c-3 -3 -11 0 -18 7 -9 10 -8 11 6 5 10 -3 15 -9
12 -12z m114 -24 c7 -11 7 -18 1 -18 -5 0 -10 5 -10 10 0 6 -7 10 -15 10 -8 0
-15 4 -15 8 0 16 27 9 39 -10z m-89 -3 c11 -13 10 -14 -4 -9 -9 3 -16 10 -16
15 0 13 6 11 20 -6z"/>
<path d="M5030 3751 c0 -10 14 -15 34 -12 5 1 6 -5 3 -13 -3 -8 1 -20 9 -26
10 -9 14 -9 14 -1 0 6 -4 11 -9 11 -5 0 -8 8 -7 17 0 10 -3 18 -9 18 -5 0 -16
4 -22 8 -8 5 -13 4 -13 -2z"/>
<path d="M4895 3737 c-6 -14 -10 -15 -22 -6 -10 9 -17 9 -25 1 -7 -7 -8 -12
-2 -12 5 0 2 -5 -6 -10 -12 -8 -12 -12 -3 -18 10 -6 10 -12 -1 -28 -14 -17
-15 -15 -11 23 4 48 -6 61 -29 37 -12 -11 -16 -12 -16 -2 0 9 -3 9 -8 2 -4 -6
-14 -11 -22 -12 -18 -1 -57 -8 -90 -17 -14 -3 -32 -8 -40 -10 -8 -2 -15 -4
-15 -5 0 -1 -13 -4 -30 -6 -16 -3 -32 -8 -35 -12 -3 -4 -12 -7 -20 -7 -8 0
-14 -6 -12 -12 1 -7 -2 -13 -7 -13 -5 0 -8 -8 -6 -17 2 -10 4 -20 4 -23 1 -3
5 1 10 9 5 8 8 23 6 33 -2 10 0 18 6 18 5 0 7 -11 5 -25 -3 -17 -1 -24 7 -19
7 3 4 -1 -6 -9 -10 -8 -13 -17 -8 -18 7 -3 7 -9 1 -19 -8 -13 -10 -13 -10 1 0
23 -36 19 -55 -6 -12 -16 -14 -17 -9 -2 3 9 1 17 -4 17 -6 0 -9 -9 -7 -21 3
-17 2 -19 -10 -9 -8 7 -12 16 -9 21 3 5 -1 9 -9 9 -7 0 -14 -7 -15 -15 -1 -8
-3 -22 -4 -30 -1 -8 -6 -15 -11 -15 -5 0 -7 6 -4 13 3 7 -5 13 -19 13 -16 1
-21 -2 -17 -13 3 -7 8 -11 11 -9 3 3 11 1 19 -5 9 -8 17 -8 26 0 8 6 18 7 22
3 5 -4 5 -1 1 6 -4 7 -12 9 -18 6 -7 -4 -8 -2 -4 4 5 9 13 9 28 1 15 -8 22 -8
28 1 4 6 10 11 14 11 3 -1 7 -1 9 0 1 1 14 2 29 3 15 2 34 8 42 15 8 7 20 10
26 6 6 -4 10 -3 9 2 -3 20 2 27 10 14 7 -11 13 -12 23 -4 7 6 21 9 30 8 11 -2
15 2 11 13 -5 11 -3 13 8 6 20 -12 40 -14 33 -3 -3 6 5 8 20 5 16 -3 24 -1 20
5 -3 6 5 8 21 5 24 -4 25 -3 13 11 -9 12 -9 15 -1 9 7 -4 22 -9 34 -11 17 -4
19 -2 9 10 -8 10 -9 15 -2 15 6 0 15 -7 20 -17 9 -15 10 -14 19 3 5 10 8 32 7
47 -2 23 0 26 10 18 13 -11 14 -50 3 -68 -3 -5 4 -9 16 -10 12 0 16 1 10 4 -7
3 -13 9 -13 15 0 6 11 3 25 -6 29 -19 46 -22 21 -3 -18 13 -17 15 12 35 l30
22 16 -25 c15 -22 15 -25 -2 -34 -9 -6 -12 -11 -5 -11 6 0 15 5 19 11 4 8 9 7
14 -2 9 -13 39 -21 52 -13 4 3 1 16 -8 29 -9 14 -20 22 -25 19 -5 -3 -9 1 -9
9 0 8 -7 20 -15 27 -8 7 -12 17 -9 22 4 6 10 5 15 -3 4 -7 11 -10 16 -6 4 5 1
12 -7 17 -9 6 -19 5 -24 0 -16 -16 -30 -11 -16 5 8 9 8 15 2 15 -6 0 -13 -6
-15 -12 -4 -9 -8 -9 -14 -3 -4 6 -14 11 -20 13 -25 4 -13 -8 27 -28 23 -12 45
-32 50 -46 6 -14 14 -23 18 -20 4 2 14 -4 20 -15 11 -17 10 -20 -5 -17 -19 3
-53 39 -53 56 0 22 -31 20 -60 -4 -28 -24 -50 -25 -50 -3 0 6 5 7 10 4 12 -7
62 29 53 38 -3 3 -13 -3 -22 -14 l-16 -20 -28 21 c-16 12 -26 25 -23 28 3 3
15 -3 26 -13 26 -23 48 -8 32 22 -10 17 -11 17 -17 0z m-79 -38 c-2 -34 -29
-61 -54 -52 -12 5 -14 2 -9 -11 4 -10 3 -15 -4 -11 -5 4 -16 2 -24 -5 -16 -14
-27 1 -14 20 6 12 9 12 9 2 0 -10 4 -9 16 3 9 9 24 14 33 11 11 -4 10 -2 -3 9
-11 8 -16 15 -12 15 5 0 4 6 -2 13 -8 10 -6 13 9 13 11 0 18 -5 15 -12 -6 -14
18 -37 27 -27 4 3 2 12 -4 20 -9 10 -8 17 1 28 17 20 18 20 16 -16z m94 21 c0
-5 -5 -10 -11 -10 -5 0 -7 5 -4 10 3 6 8 10 11 10 2 0 4 -4 4 -10z m-169 -29
c3 -1 6 -8 6 -16 0 -8 -4 -12 -9 -9 -4 3 -8 1 -8 -3 0 -5 -8 -9 -18 -10 -10
-1 -19 5 -19 13 0 8 6 13 13 10 8 -3 16 -1 19 4 3 5 -9 7 -27 5 -23 -3 -29 -2
-18 5 8 5 24 7 35 5 11 -2 23 -4 26 -4z m-65 -21 c9 0 13 -4 9 -9 -3 -6 -14
-8 -25 -6 -13 3 -18 0 -14 -7 4 -6 3 -8 -3 -5 -5 3 -10 0 -10 -8 0 -20 7 -19
24 3 14 16 14 16 9 0 -3 -10 -1 -20 5 -23 5 -4 9 -3 8 2 -3 20 2 34 11 28 7
-4 6 -13 -1 -27 -7 -14 -14 -17 -21 -10 -13 13 -40 3 -31 -12 3 -6 3 -8 -2 -4
-4 4 -14 3 -21 -3 -8 -7 -14 -7 -19 1 -4 7 -16 3 -35 -10 -22 -15 -28 -17 -26
-5 1 8 5 18 9 21 4 4 2 13 -3 20 -14 16 15 45 37 37 12 -5 14 -3 8 7 -5 8 -4
11 3 6 6 -3 13 -2 17 3 3 5 14 8 25 6 11 -2 20 2 21 8 0 9 2 9 6 0 2 -7 11
-13 19 -13z m-180 -112 c4 -7 4 -10 -1 -6 -4 4 -14 3 -22 -4 -11 -8 -12 -7 -7
6 7 19 20 21 30 4z"/>
<path d="M4593 3648 c-11 -12 -19 -15 -23 -8 -5 7 -11 6 -20 -4 -10 -13 -9
-17 4 -22 15 -6 15 -8 -1 -21 -14 -11 -11 -11 9 1 18 10 29 12 33 5 10 -15 34
8 30 29 -1 9 1 22 6 28 15 19 -20 12 -38 -8z m21 -15 c-3 -36 -2 -35 -16 -26
-7 4 -19 8 -26 9 -8 2 -17 6 -20 10 -4 4 0 5 10 1 9 -3 23 2 34 14 22 24 21
24 18 -8z"/>
<path d="M4595 3631 c-3 -5 -2 -12 3 -15 5 -3 9 1 9 9 0 17 -3 19 -12 6z"/>
<path d="M5090 3739 c0 -5 5 -7 10 -4 6 3 10 8 10 11 0 2 -4 4 -10 4 -5 0 -10
-5 -10 -11z"/>
<path d="M5131 3724 c0 -11 3 -14 6 -6 3 7 2 16 -1 19 -3 4 -6 -2 -5 -13z"/>
<path d="M5177 3733 c-10 -9 -9 -23 1 -23 5 0 9 7 9 15 0 17 -1 18 -10 8z"/>
<path d="M5036 3705 c-9 -26 -7 -32 5 -12 6 10 9 21 6 23 -2 3 -7 -2 -11 -11z"/>
<path d="M5150 3700 c0 -5 5 -10 11 -10 5 0 7 5 4 10 -3 6 -8 10 -11 10 -2 0
-4 -4 -4 -10z"/>
<path d="M5230 3695 c5 -7 8 -14 5 -17 -3 -2 2 -5 10 -5 10 0 12 4 5 12 -5 7
-8 14 -5 17 3 2 -2 5 -10 5 -10 0 -12 -4 -5 -12z"/>
<path d="M5101 3682 c-1 -13 -5 -21 -10 -17 -17 10 -24 -18 -8 -30 9 -7 13
-16 9 -20 -4 -5 -1 -5 7 0 12 7 11 10 -2 20 -18 13 -24 30 -7 20 12 -7 24 19
17 37 -3 7 -6 3 -6 -10z"/>
<path d="M5131 3684 c0 -11 3 -14 6 -6 3 7 2 16 -1 19 -3 4 -6 -2 -5 -13z"/>
<path d="M5050 3680 c0 -5 5 -10 10 -10 6 0 10 5 10 10 0 6 -4 10 -10 10 -5 0
-10 -4 -10 -10z"/>
<path d="M5155 3669 c-4 -6 -5 -12 -2 -15 2 -3 7 2 10 11 7 17 1 20 -8 4z"/>
<path d="M4944 3655 c-18 -15 -18 -15 0 -8 13 4 17 3 12 -5 -5 -8 -1 -10 10
-5 11 4 13 8 6 11 -7 2 -10 8 -6 13 8 13 1 11 -22 -6z"/>
<path d="M5173 3657 c-3 -6 -1 -7 5 -3 5 3 12 1 14 -6 6 -16 35 -18 35 -2 0
11 -3 11 -16 1 -12 -10 -14 -9 -9 4 7 17 -19 22 -29 6z"/>
<path d="M5132 3640 c0 -14 2 -19 5 -12 2 6 2 18 0 25 -3 6 -5 1 -5 -13z"/>
<path d="M5254 3638 c0 -16 2 -16 18 -1 10 9 18 17 18 17 0 1 -8 2 -18 2 -10
0 -18 -8 -18 -18z"/>
<path d="M4468 3639 c-10 -5 -18 -7 -18 -3 0 3 -7 1 -15 -6 -8 -7 -15 -9 -15
-4 0 5 -4 4 -8 -3 -4 -6 -20 -14 -36 -17 -35 -6 -48 -24 -35 -48 11 -20 11
-20 33 -12 9 3 13 10 10 16 -4 5 -10 5 -18 -1 -9 -7 -12 -4 -13 12 0 12 1 16
4 9 4 -10 9 -8 19 5 13 17 14 17 8 0 -5 -13 -2 -16 10 -11 9 3 13 10 10 15 -3
5 2 6 10 3 9 -3 14 -9 11 -13 -5 -10 26 -7 43 3 6 4 18 4 25 0 9 -6 9 -4 1 7
-6 8 -10 24 -8 37 4 25 5 25 -18 11z m4 -30 c-2 -8 -8 -18 -13 -24 -7 -7 -8
-3 -3 10 7 17 5 18 -8 8 -18 -15 -32 -5 -17 13 13 16 45 10 41 -7z"/>
<path d="M5150 3621 c0 -6 4 -13 10 -16 6 -3 7 1 4 9 -7 18 -14 21 -14 7z"/>
<path d="M5210 3611 c-8 -6 -19 -7 -25 -4 -5 4 -1 -3 9 -15 11 -12 22 -22 25
-22 3 0 0 5 -7 12 -9 9 -7 14 6 24 20 15 14 18 -8 5z"/>
<path d="M5070 3600 c0 -5 5 -10 11 -10 5 0 7 5 4 10 -3 6 -8 10 -11 10 -2 0
-4 -4 -4 -10z"/>
<path d="M5104 3598 c-4 -5 -3 -12 0 -15 3 -4 6 -1 6 6 0 7 4 10 9 6 5 -3 12
-2 15 3 3 5 -2 9 -10 9 -8 0 -17 -4 -20 -9z"/>
<path d="M5233 3587 c0 -8 6 -14 14 -14 9 0 10 4 2 14 -6 7 -12 13 -14 13 -1
0 -2 -6 -2 -13z"/>
<path d="M4292 3574 c-12 -8 -22 -13 -22 -9 0 3 -13 -1 -30 -10 -16 -9 -30
-13 -30 -9 0 4 -6 2 -12 -3 -7 -6 -57 -29 -110 -53 -54 -23 -98 -46 -98 -51 0
-5 -7 -9 -15 -9 -25 0 -85 -33 -85 -47 0 -8 -4 -12 -10 -8 -25 15 -110 -62
-116 -106 -3 -24 -2 -30 5 -20 5 8 19 16 30 18 12 2 44 14 71 28 28 14 53 26
57 26 16 2 44 21 39 26 -3 3 -1 14 5 24 9 18 39 16 39 -3 0 -7 -5 -6 -14 1
-10 9 -15 8 -20 -4 -7 -20 27 -20 47 0 8 8 18 11 22 7 5 -4 5 -1 1 5 -5 9 0
12 15 10 12 -1 24 5 27 13 5 13 3 13 -14 0 -10 -8 -16 -10 -12 -6 4 5 3 15 -3
23 -9 9 -8 13 0 13 6 0 11 -5 11 -12 0 -6 3 -8 6 -5 4 3 14 2 24 -3 11 -6 26
-4 43 5 14 7 28 11 31 7 3 -3 6 2 6 12 0 10 7 17 18 15 39 -4 51 1 49 21 -1
13 -6 19 -15 15 -7 -2 -10 0 -7 5 3 6 2 10 -4 10 -18 0 -22 -19 -5 -28 9 -5
12 -12 7 -15 -5 -3 -14 3 -21 13 -7 12 -8 21 -2 25 6 3 10 11 10 18 0 8 -3 8
-12 -1 -7 -7 -16 -12 -20 -12 -4 0 0 8 9 18 17 16 19 16 41 -7 13 -13 26 -20
30 -16 4 3 -4 15 -18 26 -14 11 -18 17 -9 14 10 -4 19 0 23 10 3 9 10 13 16
10 6 -3 22 3 36 14 31 24 19 29 -14 5z m-148 -88 c-3 -9 -10 -16 -15 -16 -6 0
-5 9 1 21 13 24 24 20 14 -5z m40 -11 c3 -8 1 -15 -4 -15 -6 0 -10 5 -10 11 0
5 -5 7 -12 3 -7 -4 -8 -3 -4 4 10 16 23 15 30 -3z m-70 -22 c14 -15 29 -24 33
-19 4 4 1 11 -7 16 -8 6 -10 10 -5 10 6 0 16 -4 23 -9 11 -6 10 -10 -1 -19
-15 -12 -37 -10 -77 7 -24 11 -24 11 5 5 29 -5 29 -5 11 15 -11 12 -16 21 -13
21 3 0 17 -12 31 -27z m-54 7 c-8 -5 -19 -10 -25 -10 -5 0 -3 5 5 10 8 5 20
10 25 10 6 0 3 -5 -5 -10z m-32 -57 c2 -7 -1 -13 -8 -13 -6 0 -8 5 -4 12 5 8
2 9 -9 5 -10 -3 -17 -2 -17 4 0 14 32 7 38 -8z m-88 -3 c0 -5 -5 -10 -11 -10
-5 0 -7 5 -4 10 3 6 8 10 11 10 2 0 4 -4 4 -10z m28 -10 c-7 -10 -14 -17 -17
-15 -4 4 18 35 25 35 2 0 -1 -9 -8 -20z m-40 -34 c-7 -8 -15 -12 -17 -11 -5 6
10 25 20 25 5 0 4 -6 -3 -14z m22 -10 c0 -3 -4 -8 -10 -11 -5 -3 -10 -1 -10 4
0 6 5 11 10 11 6 0 10 -2 10 -4z m-97 -39 c4 3 7 4 7 0 0 -18 -21 -14 -30 5
-10 21 -10 21 3 6 8 -10 17 -15 20 -11z"/>
<path d="M5135 3581 c-10 -17 17 -24 31 -7 8 9 9 11 2 6 -16 -13 -31 -13 -23
0 3 6 4 10 1 10 -3 0 -7 -4 -11 -9z"/>
<path d="M4300 3555 c-7 -9 -19 -14 -26 -11 -7 3 -15 -2 -18 -10 -3 -8 1 -17
10 -21 13 -5 13 -7 -1 -23 -18 -20 -9 -33 14 -21 9 5 18 9 21 9 20 1 60 16 60
23 0 5 -7 6 -15 3 -15 -6 -20 9 -16 49 3 21 -12 22 -29 2z m15 -22 c-1 -10 2
-23 7 -29 5 -8 3 -14 -6 -17 -21 -8 -30 11 -14 30 11 14 10 15 -12 9 l-25 -7
25 15 c14 9 26 15 27 16 1 0 0 -8 -2 -17z"/>
<path d="M5110 3560 c0 -5 5 -10 11 -10 5 0 7 5 4 10 -3 6 -8 10 -11 10 -2 0
-4 -4 -4 -10z"/>
<path d="M5175 3561 c-3 -5 -2 -12 3 -15 5 -3 9 1 9 9 0 17 -3 19 -12 6z"/>
<path d="M5136 3526 c7 -18 34 -22 34 -4 0 6 -3 8 -7 5 -3 -4 -12 -2 -20 5
-11 8 -12 7 -7 -6z"/>
<path d="M5313 3525 c0 -8 4 -12 9 -9 5 3 6 10 3 15 -9 13 -12 11 -12 -6z"/>
<path d="M5256 3487 c3 -10 9 -15 12 -12 3 3 0 11 -7 18 -10 9 -11 8 -5 -6z"/>
<path d="M5150 3476 c0 -2 8 -10 18 -17 15 -13 16 -12 3 4 -13 16 -21 21 -21
13z"/>
<path d="M5215 3449 c-4 -6 -5 -12 -2 -15 2 -3 7 2 10 11 7 17 1 20 -8 4z"/>
<path d="M5133 3433 c0 -9 4 -10 14 -2 7 6 13 12 13 14 0 1 -6 2 -13 2 -8 0
-14 -6 -14 -14z"/>
<path d="M5159 3413 c-13 -16 -12 -17 4 -4 9 7 17 15 17 17 0 8 -8 3 -21 -13z"/>
<path d="M5193 3405 c0 -8 4 -12 9 -9 5 3 6 10 3 15 -9 13 -12 11 -12 -6z"/>
<path d="M5200 3375 c-11 -13 -11 -18 0 -28 10 -9 11 -9 6 1 -4 7 -2 19 4 27
7 8 10 15 7 15 -2 0 -10 -7 -17 -15z"/>
<path d="M5137 3351 c-10 -14 -10 -14 4 -4 9 7 18 10 21 7 3 -3 8 -1 12 4 9
16 -24 9 -37 -7z"/>
<path d="M5239 3353 c-13 -16 -12 -17 4 -4 16 13 21 21 13 21 -2 0 -10 -8 -17
-17z"/>
<path d="M5073 3316 c-3 -6 -3 -8 2 -4 4 4 13 3 20 -2 8 -7 12 -5 12 3 0 16
-25 18 -34 3z"/>
<path d="M5046 3281 c-3 -4 6 -7 19 -7 14 0 22 2 19 5 -8 8 -34 10 -38 2z"/>
<path d="M5156 3273 c-6 -14 -5 -15 5 -6 7 7 10 15 7 18 -3 3 -9 -2 -12 -12z"/>
<path d="M5190 3279 c0 -5 5 -7 10 -4 6 3 10 8 10 11 0 2 -4 4 -10 4 -5 0 -10
-5 -10 -11z"/>
<path d="M5030 3243 c0 -6 8 -17 18 -24 16 -13 16 -13 2 6 -8 11 -16 22 -17
24 -2 2 -3 0 -3 -6z"/>
<path d="M5075 3231 c-3 -5 -2 -12 3 -15 5 -3 9 1 9 9 0 17 -3 19 -12 6z"/>
<path d="M4917 3118 c-7 -5 0 -6 17 -4 16 3 31 7 33 10 8 8 -37 2 -50 -6z"/>
<path d="M4914 3066 c1 -8 5 -18 8 -22 4 -3 5 1 4 10 -1 8 -5 18 -8 22 -4 3
-5 -1 -4 -10z"/>
<path d="M4950 3059 c0 -5 5 -7 10 -4 6 3 10 8 10 11 0 2 -4 4 -10 4 -5 0 -10
-5 -10 -11z"/>
<path d="M4885 2999 c-3 -4 2 -6 10 -5 21 3 28 13 10 13 -9 0 -18 -4 -20 -8z"/>
<path d="M4835 2982 c3 -3 -1 -12 -7 -21 -8 -10 -4 -9 10 3 26 23 26 23 7 23
-8 0 -13 -3 -10 -5z"/>
<path d="M4873 2966 c0 -15 22 -15 34 0 4 5 4 6 -1 2 -5 -4 -14 -3 -21 2 -8 7
-12 5 -12 -4z"/>
<path d="M4770 2960 c0 -5 5 -10 10 -10 6 0 10 5 10 10 0 6 -4 10 -10 10 -5 0
-10 -4 -10 -10z"/>
<path d="M4809 2923 c-13 -16 -12 -17 4 -4 16 13 21 21 13 21 -2 0 -10 -8 -17
-17z"/>
<path d="M4753 2905 c0 -8 4 -15 9 -15 4 0 8 4 8 9 0 6 -4 12 -8 15 -5 3 -9
-1 -9 -9z"/>
<path d="M4787 2899 c7 -7 15 -10 18 -7 3 3 -2 9 -12 12 -14 6 -15 5 -6 -5z"/>
<path d="M4674 2872 c3 -5 0 -13 -6 -15 -9 -4 -10 -6 -1 -6 17 -1 25 16 12 25
-7 4 -9 3 -5 -4z"/>
<path d="M4749 2863 c-13 -16 -12 -17 4 -4 16 13 21 21 13 21 -2 0 -10 -8 -17
-17z"/>
<path d="M4715 2849 c-4 -6 -5 -12 -2 -15 2 -3 7 2 10 11 7 17 1 20 -8 4z"/>
<path d="M4766 2838 c3 -5 10 -6 15 -3 13 9 11 12 -6 12 -8 0 -12 -4 -9 -9z"/>
<path d="M4610 2821 c0 -6 4 -13 10 -16 6 -3 7 1 4 9 -7 18 -14 21 -14 7z"/>
<path d="M4638 2823 c7 -3 16 -2 19 1 4 3 -2 6 -13 5 -11 0 -14 -3 -6 -6z"/>
<path d="M4673 2813 c0 -9 4 -10 14 -2 7 6 13 12 13 14 0 1 -6 2 -13 2 -8 0
-14 -6 -14 -14z"/>
<path d="M4640 2806 c0 -2 8 -10 18 -17 15 -13 16 -12 3 4 -13 16 -21 21 -21
13z"/>
<path d="M4696 2793 c-6 -14 -5 -15 5 -6 7 7 10 15 7 18 -3 3 -9 -2 -12 -12z"/>
<path d="M4597 2793 c-10 -9 -9 -23 1 -23 5 0 9 7 9 15 0 17 -1 18 -10 8z"/>
<path d="M4679 2753 c-13 -16 -12 -17 4 -4 16 13 21 21 13 21 -2 0 -10 -8 -17
-17z"/>
<path d="M4575 2750 c-4 -6 1 -7 11 -3 10 4 15 2 11 -4 -3 -5 0 -10 8 -10 11
0 12 4 4 14 -14 15 -26 17 -34 3z"/>
<path d="M4490 2720 c0 -5 5 -10 10 -10 6 0 10 5 10 10 0 6 -4 10 -10 10 -5 0
-10 -4 -10 -10z"/>
<path d="M4546 2722 c-3 -5 1 -9 9 -9 8 0 15 4 15 9 0 4 -4 8 -9 8 -6 0 -12
-4 -15 -8z"/>
<path d="M4467 2699 c7 -7 15 -10 18 -7 3 3 -2 9 -12 12 -14 6 -15 5 -6 -5z"/>
<path d="M4540 2689 c0 -5 -6 -7 -12 -3 -7 4 -9 3 -5 -1 13 -15 36 -14 30 1
-6 17 -13 18 -13 3z"/>
<path d="M4444 2679 c-3 -6 -2 -15 4 -21 6 -6 12 -6 17 3 6 8 4 10 -5 4 -10
-6 -12 -4 -7 8 7 19 2 23 -9 6z"/>
<path d="M4480 2676 c0 -2 7 -7 16 -10 8 -3 12 -2 9 4 -6 10 -25 14 -25 6z"/>
<path d="M4410 2650 c-6 -11 -8 -20 -6 -20 3 0 10 9 16 20 6 11 8 20 6 20 -3
0 -10 -9 -16 -20z"/>
<path d="M4466 2645 c-11 -8 -15 -15 -9 -15 6 0 16 7 23 15 16 19 11 19 -14 0z"/>
<path d="M4530 2651 c0 -7 -4 -10 -9 -7 -11 7 -9 -21 2 -29 4 -3 5 -2 2 2 -3
3 0 12 7 20 6 7 8 16 4 20 -3 3 -6 1 -6 -6z"/>
<path d="M4380 2630 c0 -5 -5 -9 -11 -7 -6 1 -14 -5 -16 -13 -4 -12 -3 -12 5
-2 5 8 13 13 18 12 5 -1 10 3 12 9 2 6 1 11 -2 11 -3 0 -6 -4 -6 -10z"/>
<path d="M4416 2621 c-3 -5 0 -14 8 -20 10 -9 15 -8 19 3 4 11 1 13 -10 9 -11
-4 -14 -2 -9 5 4 7 5 12 2 12 -3 0 -7 -4 -10 -9z"/>
<path d="M4475 2600 c-3 -5 -1 -10 4 -10 6 0 11 5 11 10 0 6 -2 10 -4 10 -3 0
-8 -4 -11 -10z"/>
<path d="M4309 2583 c-11 -15 -11 -16 1 -5 18 15 34 16 24 0 -4 -7 -3 -8 5 -4
12 8 6 26 -8 26 -5 0 -15 -8 -22 -17z"/>
<path d="M4390 2581 c0 -17 21 -24 33 -12 9 9 7 10 -7 5 -13 -5 -17 -4 -12 4
4 7 2 12 -3 12 -6 0 -11 -4 -11 -9z"/>
<path d="M4275 2559 c-4 -6 -5 -12 -2 -15 2 -3 7 2 10 11 7 17 1 20 -8 4z"/>
<path d="M4354 2562 c4 -3 14 -7 22 -8 9 -1 13 0 10 4 -4 3 -14 7 -22 8 -9 1
-13 0 -10 -4z"/>
<path d="M4310 2550 c0 -5 5 -10 10 -10 6 0 10 5 10 10 0 6 -4 10 -10 10 -5 0
-10 -4 -10 -10z"/>
<path d="M4406 2538 c3 -5 10 -6 15 -3 13 9 11 12 -6 12 -8 0 -12 -4 -9 -9z"/>
<path d="M4234 2528 c-4 -7 -3 -8 4 -4 7 4 12 2 12 -3 0 -6 5 -11 10 -11 15 0
12 17 -5 23 -8 4 -17 1 -21 -5z"/>
<path d="M4355 2530 c-3 -5 -3 -10 1 -10 4 0 -1 -7 -12 -16 -18 -14 -18 -15 4
-4 12 6 20 15 17 20 -3 4 1 11 7 13 9 4 10 6 1 6 -6 1 -15 -3 -18 -9z"/>
<path d="M4285 2520 c-3 -6 1 -7 9 -4 18 7 21 14 7 14 -6 0 -13 -4 -16 -10z"/>
<path d="M4193 2494 c-3 -8 -9 -11 -14 -8 -5 3 -6 -2 -3 -10 4 -11 0 -14 -16
-11 -12 2 -23 -2 -27 -10 -3 -8 -9 -12 -14 -9 -5 3 -6 -3 -2 -12 4 -11 8 -13
11 -6 2 7 8 10 13 7 5 -4 6 1 3 9 -4 11 0 14 16 11 15 -3 24 3 32 20 11 25 31
25 22 1 -7 -18 12 -30 22 -15 4 7 3 9 -4 5 -7 -4 -10 1 -9 14 1 21 12 27 20
10 3 -6 4 -5 3 2 -4 18 -46 19 -53 2z"/>
<path d="M4294 2499 c-4 -7 -3 -9 4 -5 5 3 13 0 15 -6 4 -9 6 -10 6 -1 1 17
-16 25 -25 12z"/>
<path d="M4273 2475 c0 -14 3 -25 8 -25 4 0 6 10 4 21 -6 32 -12 34 -12 4z"/>
<path d="M4192 2434 c2 -8 7 -14 12 -14 5 1 13 -4 18 -12 8 -10 9 -10 5 2 -2
8 -10 14 -17 12 -8 -2 -10 3 -7 13 4 8 2 15 -4 15 -6 0 -9 -7 -7 -16z"/>
<path d="M4236 2442 c-2 -4 0 -14 6 -22 8 -12 9 -11 4 4 -5 14 -2 17 9 12 9
-3 13 -2 10 4 -7 12 -22 13 -29 2z"/>
<path d="M4094 2419 c0 -11 7 -24 15 -28 10 -7 8 -12 -10 -25 -13 -9 -18 -16
-12 -16 6 0 16 7 23 15 15 18 31 20 28 3 -2 -7 3 -13 11 -13 8 0 15 6 17 13 1
7 0 8 -3 2 -2 -5 -9 -10 -14 -10 -6 0 -7 4 -4 10 3 5 -5 15 -19 21 -13 6 -22
17 -20 24 3 7 1 16 -4 19 -5 3 -9 -4 -8 -15z"/>
<path d="M4145 2418 l-20 -21 23 12 c12 6 22 16 22 21 0 13 -2 12 -25 -12z"/>
<path d="M4064 2398 c1 -22 26 -39 26 -18 0 6 -5 8 -12 4 -8 -5 -9 -2 -5 9 3
9 2 19 -2 21 -5 3 -8 -4 -7 -16z"/>
<path d="M4170 2400 c0 -5 5 -10 10 -10 6 0 10 5 10 10 0 6 -4 10 -10 10 -5 0
-10 -4 -10 -10z"/>
<path d="M4020 2380 c0 -5 7 -7 15 -4 8 4 15 8 15 10 0 2 -7 4 -15 4 -8 0 -15
-4 -15 -10z"/>
<path d="M4000 2369 c0 -5 -5 -7 -12 -3 -7 5 -8 3 -3 -6 6 -10 4 -12 -8 -7 -9
3 -19 1 -23 -5 -4 -7 -3 -8 4 -4 7 4 12 3 12 -2 0 -17 -13 -21 -33 -11 -14 8
-18 8 -13 0 4 -6 2 -12 -3 -12 -20 -3 -26 -5 -49 -17 -12 -7 -20 -18 -16 -24
4 -6 -2 -8 -17 -4 -21 6 -22 6 -6 -4 16 -10 17 -14 4 -28 -8 -10 -14 -32 -12
-50 1 -18 -2 -35 -7 -38 -8 -5 -12 16 -9 46 2 12 0 12 -7 2 -7 -11 -10 -10
-16 3 -8 23 -8 25 7 20 6 -3 17 3 24 14 10 15 9 20 -2 25 -10 3 -12 0 -8 -12
6 -14 4 -15 -8 -5 -12 10 -18 10 -28 0 -6 -6 -19 -12 -29 -12 -9 0 -16 -6 -14
-14 2 -8 -3 -11 -12 -8 -9 4 -15 1 -13 -5 1 -7 -7 -13 -18 -15 -16 -3 -17 -2
-5 6 24 17 2 13 -33 -6 -18 -9 -36 -16 -40 -15 -5 1 -5 -3 -1 -9 5 -9 2 -10
-10 -6 -10 4 -19 1 -23 -8 -4 -12 -8 -13 -20 -4 -8 7 -13 8 -12 3 3 -20 -2
-28 -10 -15 -7 11 -12 11 -32 0 -13 -7 -27 -14 -31 -15 -5 -1 -10 -3 -13 -4
-3 -1 -9 -4 -15 -5 -5 -1 -13 -4 -17 -5 -5 -1 -12 -2 -17 -1 -5 1 -16 -1 -25
-5 -9 -4 -24 -8 -33 -9 -10 -2 -21 -4 -25 -5 -5 -1 -23 -2 -40 -2 -18 0 -33
-5 -33 -10 0 -5 -9 -4 -19 2 -13 7 -22 7 -26 0 -6 -9 1 -14 18 -11 4 0 7 -3 7
-7 0 -4 9 -8 20 -9 11 -1 19 3 17 10 -1 6 8 12 20 13 12 1 21 -2 18 -6 -2 -4
2 -7 10 -7 8 0 11 5 8 11 -4 6 -2 7 3 3 5 -5 10 -13 10 -18 1 -5 2 -13 3 -17
0 -5 8 -9 16 -9 8 0 15 4 15 9 0 4 -4 8 -9 8 -5 0 -11 6 -14 13 -3 8 1 14 9
14 7 0 11 -4 8 -9 -3 -5 0 -7 6 -6 8 2 13 -12 15 -34 2 -21 -1 -38 -7 -38 -5
0 -7 4 -3 9 3 5 0 13 -6 17 -8 5 -9 3 -4 -7 7 -11 5 -11 -10 1 -10 8 -16 10
-13 5 4 -7 -3 -11 -17 -11 -13 0 -21 4 -18 10 4 5 0 6 -8 1 -11 -6 -12 -5 -1
6 15 16 16 29 2 29 -6 0 -9 -6 -8 -12 2 -7 -3 -12 -9 -10 -7 1 -13 -3 -13 -9
0 -5 -5 -7 -11 -3 -8 5 -8 1 0 -14 6 -12 16 -24 21 -27 6 -4 7 -12 3 -18 -4
-7 -8 -16 -8 -22 -1 -5 -6 -9 -13 -8 -7 2 -12 -2 -12 -7 0 -6 7 -10 15 -10 8
0 15 4 15 9 0 6 9 8 20 6 13 -2 18 0 14 7 -4 6 1 8 16 3 19 -6 21 -4 16 17 -6
19 -5 20 4 6 13 -21 43 -12 36 11 -4 11 -2 10 9 -3 8 -11 15 -15 15 -10 0 5
10 11 22 11 13 1 24 7 26 12 2 5 9 8 17 5 7 -3 16 0 20 5 3 6 12 9 18 5 7 -3
4 1 -6 9 -10 9 -14 18 -8 21 5 3 16 -1 25 -9 9 -9 17 -11 21 -5 3 5 1 10 -5
10 -6 0 -8 5 -4 12 5 7 11 5 21 -7 7 -11 13 -13 13 -6 0 7 5 9 10 6 6 -4 10
-3 9 2 -3 20 2 29 21 30 11 1 18 -2 15 -7 -4 -6 2 -7 11 -3 12 4 14 8 5 11 -8
3 -7 8 6 18 24 18 38 18 23 -1 -11 -13 -10 -14 3 -9 21 8 30 34 17 49 -7 9 -6
16 4 24 12 10 15 9 15 -6 1 -39 5 -52 13 -47 5 3 7 13 6 21 -2 9 3 18 10 20 8
3 10 -1 5 -14 -3 -10 -3 -15 1 -11 4 3 9 14 10 23 3 23 27 35 47 24 12 -6 20
-5 24 1 4 6 11 7 17 4 7 -4 8 -2 4 4 -7 11 6 17 29 12 6 -1 5 4 -2 11 -10 10
-15 9 -28 -1 -9 -8 -15 -8 -15 -2 0 6 8 16 18 21 16 10 16 10 0 11 -22 0 -23
13 -4 29 9 7 17 8 20 2 3 -5 0 -12 -6 -15 -7 -3 -4 -4 6 -3 10 1 21 -4 24 -12
3 -10 0 -11 -9 -5 -12 7 -12 5 0 -9 17 -21 18 -21 18 1 0 9 -6 24 -14 33 -12
14 -11 18 2 29 12 10 19 10 27 2 15 -15 28 -15 28 -1 0 5 -4 8 -9 4 -5 -3 -12
-1 -16 5 -3 5 -1 10 4 10 6 0 11 5 11 11 0 5 -4 7 -10 4 -5 -3 -10 -2 -10 3 0
6 7 13 16 16 23 9 24 8 17 -11 -4 -10 6 -3 23 15 l29 32 22 -25 c12 -14 17
-27 12 -31 -12 -7 -12 -24 1 -24 6 0 9 5 8 11 -2 6 3 14 11 17 9 3 11 0 6 -8
-6 -9 -4 -11 5 -5 10 6 9 11 -6 21 -36 24 -53 46 -47 60 3 8 2 14 -1 14 -3 0
-6 -5 -6 -11z m-93 -84 c-1 0 -13 -9 -26 -20 -23 -20 -23 -20 -20 0 5 27 31
47 41 32 4 -6 6 -12 5 -12z m-111 -47 c4 -7 3 -10 -1 -5 -5 4 -21 -5 -36 -19
-27 -26 -28 -26 -26 -5 1 12 6 20 13 17 7 -3 18 2 24 10 15 17 17 17 26 2z
m-31 -48 c-10 -11 -20 -18 -23 -15 -7 6 18 35 31 35 5 0 2 -9 -8 -20z m-25
-33 c0 -5 8 1 18 13 18 22 42 21 42 -1 0 -6 -4 -7 -10 -4 -5 3 -27 -7 -47 -22
-21 -15 -32 -20 -24 -10 7 9 9 17 3 17 -13 0 -24 29 -16 42 7 11 34 -17 34
-35z m-55 19 c19 -14 19 -15 2 -34 -12 -13 -15 -22 -8 -27 6 -3 11 -11 11 -18
0 -25 -25 15 -26 43 -1 22 2 27 15 23 13 -4 14 -3 1 5 -18 14 -33 4 -26 -17 5
-12 2 -11 -9 3 -8 11 -15 16 -15 10 0 -5 -9 -15 -19 -21 -16 -10 -20 -9 -25 3
-3 9 -1 12 4 9 6 -4 22 3 36 14 32 25 34 25 59 7z m-31 -63 c6 -17 1 -25 -21
-36 -15 -7 -35 -13 -43 -12 -8 1 -21 3 -27 3 -7 1 -13 7 -13 12 0 12 22 9 32
-5 5 -6 8 -5 8 3 0 6 5 12 11 12 5 0 7 -5 3 -12 -4 -7 -3 -8 5 -4 6 4 8 12 5
18 -4 6 2 8 17 3 13 -3 19 -3 13 2 -6 4 -10 17 -8 28 2 18 1 18 -17 -4 -10
-13 -19 -19 -19 -15 0 5 -5 2 -11 -6 -9 -13 -10 -12 -5 3 4 12 2 16 -6 11 -6
-4 -8 -3 -5 3 3 5 -1 10 -9 10 -10 0 -11 -4 -4 -11 14 -14 12 -25 -5 -22 -18
3 -32 16 -17 16 7 0 11 5 10 11 -4 14 30 21 38 8 3 -5 15 -3 27 6 23 16 31 12
41 -22z m-128 1 c-3 -7 8 -27 25 -43 16 -16 25 -32 20 -36 -5 -3 -13 -1 -16 5
-5 8 -11 8 -20 0 -7 -6 -17 -10 -21 -8 -5 1 -19 -3 -31 -10 -18 -10 -21 -9
-19 4 3 18 26 35 38 28 4 -3 8 0 8 5 0 6 -4 11 -10 11 -5 0 -10 5 -10 11 0 5
5 7 12 3 7 -5 8 -3 3 6 -5 9 -4 11 3 6 17 -10 15 -1 -4 14 -12 11 -15 11 -12
-1 2 -8 -3 -13 -10 -11 -10 2 -10 -2 -3 -17 8 -14 7 -20 -4 -25 -8 -3 -17 -1
-20 4 -4 6 -1 10 4 10 6 0 11 4 11 8 0 5 -7 9 -15 9 -8 0 -13 -3 -10 -5 3 -3
-2 -13 -10 -22 -20 -22 -29 -67 -15 -75 6 -4 7 1 3 12 -6 16 -5 17 13 3 18
-14 18 -14 5 3 -8 10 -9 17 -3 17 20 0 25 -23 8 -36 -32 -23 -50 -11 -51 33 0
23 -7 48 -14 57 -7 9 -11 17 -7 17 3 1 15 3 26 4 11 1 22 4 25 5 3 1 10 4 15
5 6 1 12 3 15 4 3 0 8 2 13 2 4 1 16 7 26 15 22 15 40 9 32 -12z m-70 -77 c1
-7 -7 -13 -16 -13 -15 0 -16 4 -8 19 10 19 20 16 24 -6z m-162 -36 c3 -5 19
-7 36 -6 33 3 61 -27 38 -41 -6 -4 -8 -3 -5 3 4 6 0 13 -8 17 -16 6 -29 -9
-20 -24 3 -5 0 -7 -8 -4 -8 3 -18 0 -22 -5 -3 -6 -11 -9 -16 -5 -6 4 -6 10 1
19 7 9 6 16 -5 25 -8 7 -15 16 -15 21 0 12 17 12 24 0z m196 -1 c0 -5 -4 -10
-10 -10 -5 0 -10 5 -10 10 0 6 5 10 10 10 6 0 10 -4 10 -10z"/>
<path d="M3425 2091 c-3 -6 -15 -8 -26 -6 -20 4 -20 3 -7 -13 9 -9 13 -24 11
-32 -3 -8 3 -4 13 10 17 23 27 50 19 50 -2 0 -6 -4 -10 -9z m5 -17 c0 -8 -19
-13 -24 -6 -3 5 1 9 9 9 8 0 15 -2 15 -3z"/>
<path d="M3516 2081 c-4 -6 -2 -11 5 -11 8 0 8 -4 -1 -15 -7 -9 -8 -15 -2 -15
14 0 22 24 12 39 -5 9 -10 10 -14 2z"/>
<path d="M3480 2040 c-9 -6 -10 -10 -3 -10 6 0 15 5 18 10 8 12 4 12 -15 0z"/>
<path d="M3292 1984 c14 -16 15 -23 5 -34 -6 -8 0 -4 16 9 32 29 32 30 10 26
-10 -1 -25 3 -33 9 -10 7 -9 4 2 -10z"/>
<path d="M4030 2360 c-8 -5 -10 -10 -5 -10 6 0 17 5 25 10 8 5 11 10 5 10 -5
0 -17 -5 -25 -10z"/>
<path d="M4040 2340 c-13 -8 -13 -10 2 -10 9 0 20 5 23 10 8 13 -5 13 -25 0z"/>
<path d="M4110 2340 c0 -5 5 -10 10 -10 6 0 10 5 10 10 0 6 -4 10 -10 10 -5 0
-10 -4 -10 -10z"/>
<path d="M4075 2330 c-4 -6 -4 -14 -1 -17 3 -4 6 0 6 8 0 12 2 12 10 -1 5 -8
12 -12 15 -9 3 4 -1 12 -9 18 -10 9 -16 9 -21 1z"/>
<path d="M3973 2302 c-31 -37 -29 -50 2 -15 13 15 25 23 25 16 0 -6 -7 -18
-15 -27 -20 -20 -19 -32 2 -15 15 12 16 12 10 -4 -4 -10 -3 -16 2 -12 9 5 8
71 0 80 -2 2 -14 -9 -26 -23z"/>
<path d="M3895 2240 c3 -5 11 -10 16 -10 6 0 7 5 4 10 -3 6 -11 10 -16 10 -6
0 -7 -4 -4 -10z"/>
<path d="M3941 2240 c-10 -5 -9 -8 2 -13 7 -3 19 -2 26 3 10 5 9 8 -2 13 -7 3
-19 2 -26 -3z"/>
<path d="M3913 2205 c0 -8 4 -12 9 -9 4 3 8 9 8 15 0 5 -4 9 -8 9 -5 0 -9 -7
-9 -15z"/>
<path d="M3773 2125 c0 -8 4 -12 9 -9 4 3 8 9 8 15 0 5 -4 9 -8 9 -5 0 -9 -7
-9 -15z"/>
<path d="M3074 2089 c-3 -6 -1 -16 5 -22 8 -8 11 -6 11 6 0 15 2 15 20 -3 11
-11 20 -23 20 -28 0 -4 9 -13 20 -20 23 -14 25 -5 5 21 -7 11 -11 25 -8 33 3
9 -1 14 -12 14 -10 0 -14 -5 -9 -12 4 -7 -2 -5 -13 5 -23 20 -29 21 -39 6z"/>
<path d="M3180 2080 c0 -6 -8 -10 -17 -10 -15 0 -16 -2 -3 -10 8 -5 11 -10 6
-10 -5 0 -3 -7 4 -15 13 -16 4 -39 -12 -29 -22 14 -67 12 -61 -2 2 -7 10 -12
16 -10 7 1 9 1 5 -1 -15 -8 -8 -19 12 -20 11 -1 19 1 17 5 -1 4 3 8 8 9 6 0 9
-3 7 -9 -1 -5 3 -8 10 -5 7 2 12 13 10 23 -2 16 -1 17 8 4 9 -12 10 -11 5 8
-7 24 4 29 24 10 12 -11 13 -10 7 6 -5 15 -4 16 7 8 8 -7 18 -7 27 -2 8 5 17
7 20 5 3 -2 7 5 7 16 1 10 -2 19 -8 19 -5 0 -8 -5 -6 -12 4 -22 -46 -16 -70 8
-13 13 -23 19 -23 14z m30 -35 c0 -7 -30 -13 -34 -7 -3 4 4 9 15 9 10 1 19 0
19 -2z"/>
<path d="M3030 2062 c0 -6 5 -14 11 -17 16 -10 -19 -45 -39 -39 -10 3 -5 -2
10 -10 16 -10 25 -22 22 -30 -3 -8 -1 -17 5 -21 8 -4 8 -12 0 -27 -9 -16 -8
-19 2 -13 8 6 11 4 7 -6 -4 -10 3 -15 24 -16 23 0 28 3 24 16 -4 11 -2 11 9
-3 8 -11 15 -15 15 -9 0 6 9 9 22 5 14 -3 19 -2 14 7 -4 6 -12 9 -17 6 -5 -4
-12 1 -15 10 -5 12 -9 13 -14 5 -5 -9 -9 -9 -14 -1 -4 6 -3 11 3 11 12 0 8 38
-7 66 -9 17 -8 25 4 40 8 11 13 13 12 5 -2 -7 3 -16 10 -18 11 -4 12 -1 3 16
-13 23 -19 25 -41 11 -10 -6 -20 -4 -32 7 -10 9 -18 11 -18 5z m38 -35 c-10
-8 -13 -18 -8 -26 6 -11 9 -11 14 0 3 8 3 3 0 -10 -4 -15 -2 -21 4 -17 6 3 13
2 17 -3 3 -5 -3 -14 -12 -20 -10 -6 -12 -11 -5 -11 13 0 12 -21 -3 -32 -12 -8
-25 -1 -25 15 0 7 4 6 10 -3 6 -10 9 -5 8 18 -1 28 -3 30 -17 20 -13 -10 -14
-10 -3 2 14 16 16 34 3 25 -5 -3 -13 0 -17 6 -5 8 -3 9 6 4 10 -6 12 -4 7 8
-4 10 0 20 11 26 24 14 30 13 10 -2z"/>
<path d="M3315 2038 c1 -13 6 -21 11 -19 10 3 7 21 -5 34 -4 4 -7 -3 -6 -15z"/>
<path d="M3205 2009 c4 -6 -3 -21 -16 -35 -17 -18 -25 -21 -31 -12 -6 10 -8
10 -8 -1 0 -11 -3 -11 -15 -1 -13 11 -14 10 -9 -5 6 -14 4 -16 -7 -10 -12 7
-12 6 1 -11 22 -29 24 -30 17 -12 -4 12 -1 16 14 13 10 -2 19 0 19 4 0 4 7 8
16 8 15 0 14 -2 -1 -13 -10 -8 -22 -11 -26 -8 -5 3 -9 0 -9 -6 0 -7 7 -10 14
-7 10 4 13 1 9 -9 -4 -12 0 -14 23 -8 38 9 45 14 39 25 -6 9 9 14 30 9 6 -1 7
2 3 6 -4 4 -4 12 1 18 11 13 -25 63 -36 52 -4 -4 -1 -11 7 -16 10 -6 11 -10 3
-10 -7 0 -10 -7 -7 -15 4 -8 11 -12 17 -8 6 3 7 1 3 -5 -10 -16 -11 -16 -31
14 -9 15 -12 23 -5 19 9 -6 9 -3 1 14 -7 11 -14 21 -17 21 -3 0 -2 -5 1 -11z
m21 -74 c1 -15 0 -24 -3 -21 -3 3 -15 0 -26 -6 -21 -11 -21 -10 -4 15 23 35
23 54 0 36 -16 -13 -17 -12 -4 4 17 22 32 10 37 -28z"/>
<path d="M2969 1966 c-6 -30 -1 -51 11 -51 18 0 20 47 2 53 -6 2 -12 1 -13 -2z"/>
</g>
</svg>
